# xmcd
#
# Track frame offsets:
#	150
#	20239
#	34949
#	49556
#	65889
#	79176
#	96413
#	112539
#	128914
#	145775
#	165946
#	177455
#	190507
#	202512
#	216587
#	231791
#	249984
#	273059
#	289704
#
# Disc length: 4121 seconds
#
# Revision: 0
# Processed by: cddbd v1.5PL3 Copyright (c) Steve Scherf et al.
# Submitted via: EasyCDDAExtractor 4.6.9.1
#
DISCID=06101713
DTITLE=Sand People - Points Of View
DYEAR=2004
DGENRE=
TTITLE0=In The Beginning
TTITLE1=Sight and Sound
TTITLE2=Put A Sock In It
TTITLE3=Papier Oshin
TTITLE4=Land Of The Free
TTITLE5=Masquerade
TTITLE6=Desert
TTITLE7=Saltine Cantina
TTITLE8=Torrential Thought
TTITLE9=Earth 2 O
TTITLE10=You Ain't Right?
TTITLE11=Dear Diary
TTITLE12=Semaphore
TTITLE13=Free Dirt
TTITLE14=Confession
TTITLE15=The Abyss
TTITLE16=Anguish
TTITLE17=Utility Belt
TTITLE18=Resolution
EXTD=
EXTT0=
EXTT1=
EXTT2=
EXTT3=
EXTT4=
EXTT5=
EXTT6=
EXTT7=
EXTT8=
EXTT9=
EXTT10=
EXTT11=
EXTT12=
EXTT13=
EXTT14=
EXTT15=
EXTT16=
EXTT17=
EXTT18=
PLAYORDER=
